<svg id="Layer_1_copy" data-name="Layer 1 copy" xmlns="http://www.w3.org/2000/svg" viewBox="0 0 351.98 78.28"><defs><style>.cls-1{fill:#807f83;}.cls-2{fill:#00539b;}.cls-3{fill:#008348;}.cls-4{fill:#71b391;}.cls-5{fill:#1c996b;}</style></defs><title> BSL_Logo-New Tag</title><path class="cls-1" d="M144.67,66.66l1.17-1.39a5.12,5.12,0,0,0,3.49,1.44c1.2,0,2-.57,2-1.39v0c0-.79-.44-1.22-2.49-1.69-2.36-.57-3.68-1.26-3.68-3.3v0c0-1.9,1.58-3.21,3.77-3.21a6.12,6.12,0,0,1,4,1.39l-1,1.47a5,5,0,0,0-3-1.14c-1.14,0-1.8.59-1.8,1.31v0c0,.85.5,1.23,2.64,1.73,2.33.57,3.53,1.41,3.53,3.24v0c0,2.07-1.62,3.3-3.94,3.3A6.81,6.81,0,0,1,144.67,66.66Z" transform="translate(-4.2 -4.06)"/><path class="cls-1" d="M156.79,57.22H165V59h-6.26v2.87h5.55v1.74h-5.55v3h6.34v1.74h-8.28Z" transform="translate(-4.2 -4.06)"/><path class="cls-1" d="M168.64,57.22h1.8l5.92,7.64V57.22h1.91V68.28h-1.62l-6.1-7.87v7.87h-1.91Z" transform="translate(-4.2 -4.06)"/><path class="cls-1" d="M182.49,60.4V57.22h1.95V68.28h-1.95Z" transform="translate(-4.2 -4.06)"/><path class="cls-1" d="M188.17,62.78v0a5.78,5.78,0,0,1,11.56,0v0a5.78,5.78,0,0,1-11.56,0Zm9.52,0v0a3.78,3.78,0,0,0-3.76-3.93,3.74,3.74,0,0,0-3.73,3.9v0A3.77,3.77,0,0,0,194,66.66,3.72,3.72,0,0,0,197.69,62.78Z" transform="translate(-4.2 -4.06)"/><path class="cls-1" d="M203.35,57.22h4.92a4.43,4.43,0,0,1,3.19,1.11,3.31,3.31,0,0,1,.92,2.38v0a3.32,3.32,0,0,1-2.62,3.35l3,4.19h-2.3l-2.72-3.86h-2.43v3.86h-1.94Zm4.78,5.48c1.39,0,2.28-.73,2.28-1.85v0c0-1.18-.86-1.83-2.29-1.83h-2.83V62.7Z" transform="translate(-4.2 -4.06)"/><path class="cls-1" d="M222,57.22H224v9.29h5.81v1.77H222Z" transform="translate(-4.2 -4.06)"/><path class="cls-1" d="M233.19,59.72v-2.5h1.94V68.28h-1.94Z" transform="translate(-4.2 -4.06)"/><path class="cls-1" d="M238.4,57.22h2.15l3.33,8.5,3.32-8.5h2.1l-4.58,11.13H243Z" transform="translate(-4.2 -4.06)"/><path class="cls-1" d="M252.57,59.8V57.22h1.94V68.28h-1.94Z" transform="translate(-4.2 -4.06)"/><path class="cls-1" d="M258.73,57.22h1.8l5.92,7.64V57.22h1.91V68.28h-1.62l-6.1-7.87v7.87h-1.91Z" transform="translate(-4.2 -4.06)"/><path class="cls-1" d="M272,62.78v0a5.63,5.63,0,0,1,5.7-5.72,6,6,0,0,1,4.25,1.5L280.7,60a4.3,4.3,0,0,0-3.09-1.18,3.74,3.74,0,0,0-3.59,3.9v0a3.7,3.7,0,0,0,3.76,4,4.56,4.56,0,0,0,2.67-.84V63.79h-2.82V62.1h4.7v4.64a7.05,7.05,0,0,1-4.61,1.72A5.48,5.48,0,0,1,272,62.78Z" transform="translate(-4.2 -4.06)"/><line class="cls-1" x1="66.95" y1="58.73" x2="136.1" y2="58.73"/><polygon class="cls-1" points="136.1 59.56 66.94 59.56 66.94 57.9 136.1 57.9 136.1 59.56 136.1 59.56"/><polygon class="cls-1" points="351.75 59.56 282.6 59.56 282.6 57.9 351.75 57.9 351.75 59.56 351.75 59.56"/><path class="cls-2" d="M91.28,32.12a10.15,10.15,0,0,1,4.74,2,6.05,6.05,0,0,1,2.17,4.71,6.74,6.74,0,0,1-1.43,4.06,8.16,8.16,0,0,1-3.94,2.83,24.46,24.46,0,0,1-7.64.89H70.83v-.78H72a3.14,3.14,0,0,0,2.74-1.13,6.07,6.07,0,0,0,.52-3.12V23.23c0-1.76-.22-2.87-.65-3.33A3.42,3.42,0,0,0,72,19H70.83V18.2H84a28.13,28.13,0,0,1,5.9.5A9.78,9.78,0,0,1,95,21.37a6.32,6.32,0,0,1,1.77,4.42,5.82,5.82,0,0,1-1.39,3.82A8.25,8.25,0,0,1,91.28,32.12ZM79.53,31a15.83,15.83,0,0,0,1.9.22c.71.05,1.49.08,2.34.08a14,14,0,0,0,4.92-.66,5.28,5.28,0,0,0,2.53-2,5.45,5.45,0,0,0,.87-3,5.32,5.32,0,0,0-2.17-4.26q-2.17-1.75-6.35-1.76a16.62,16.62,0,0,0-4,.46Zm0,13.59a24.65,24.65,0,0,0,5.14.56,9.71,9.71,0,0,0,6.19-1.71A5.21,5.21,0,0,0,93,39.2,5.86,5.86,0,0,0,92,36a6.39,6.39,0,0,0-3.14-2.41,14.52,14.52,0,0,0-5.38-.88c-.92,0-1.72,0-2.38.05a11.85,11.85,0,0,0-1.59.14Z" transform="translate(-4.2 -4.06)"/><path class="cls-2" d="M134.92,46.55h-6.59L120,35.76l-1.51,0H118l-.57,0v6.7a4.45,4.45,0,0,0,.52,2.71,2.68,2.68,0,0,0,2.07.75h1v.63H110.36v-.63h.93a2.52,2.52,0,0,0,2.23-1,5,5,0,0,0,.39-2.5V27.55q0-2.18-.51-2.7a2.79,2.79,0,0,0-2.11-.75h-.93v-.63h9a23.23,23.23,0,0,1,5.8.53,6.69,6.69,0,0,1,3.17,2,4.92,4.92,0,0,1,1.3,3.43,5.17,5.17,0,0,1-1.48,3.69,8.53,8.53,0,0,1-4.6,2.21l5.1,6.63a12.38,12.38,0,0,0,3,3,8,8,0,0,0,3.28,1ZM117.38,34.69h1a8.36,8.36,0,0,0,5.32-1.43,4.45,4.45,0,0,0,1.8-3.64,4.6,4.6,0,0,0-1.45-3.51,5.37,5.37,0,0,0-3.84-1.36,17,17,0,0,0-2.86.33Z" transform="translate(-4.2 -4.06)"/><path class="cls-2" d="M154.8,22.94a11.58,11.58,0,0,1,8.33,3.41,11.38,11.38,0,0,1,3.52,8.52,11.68,11.68,0,0,1-3.55,8.73,12,12,0,0,1-20.63-8.68,11.34,11.34,0,0,1,4-9A12.32,12.32,0,0,1,154.8,22.94Zm-.35,1.24a6.69,6.69,0,0,0-5.31,2.3q-2.5,2.86-2.5,8.37t2.59,8.7a6.57,6.57,0,0,0,5.24,2.32,7.38,7.38,0,0,0,5.75-2.54q2.26-2.53,2.26-8,0-5.92-2.49-8.83A6.92,6.92,0,0,0,154.45,24.18Z" transform="translate(-4.2 -4.06)"/><path class="cls-2" d="M187.45,22.94a11.61,11.61,0,0,1,8.34,3.41,11.38,11.38,0,0,1,3.52,8.52,11.68,11.68,0,0,1-3.55,8.73,12,12,0,0,1-20.63-8.68,11.33,11.33,0,0,1,4-9A12.34,12.34,0,0,1,187.45,22.94Zm-.34,1.24a6.72,6.72,0,0,0-5.32,2.3q-2.49,2.86-2.49,8.37t2.58,8.7a6.61,6.61,0,0,0,5.25,2.32,7.4,7.4,0,0,0,5.75-2.54c1.5-1.69,2.26-4.36,2.26-8q0-5.92-2.49-8.83A6.92,6.92,0,0,0,187.11,24.18Z" transform="translate(-4.2 -4.06)"/><path class="cls-2" d="M218.26,33.75l9.11,8.46a16.88,16.88,0,0,0,3.82,2.85,8.79,8.79,0,0,0,3.17.86v.63H222.61v-.63a2.71,2.71,0,0,0,1.53-.33.93.93,0,0,0,.46-.75,1.6,1.6,0,0,0-.17-.73,7.63,7.63,0,0,0-1.14-1.21L214.77,35v7.44a7.22,7.22,0,0,0,.23,2.32,1.57,1.57,0,0,0,.77.73,3.58,3.58,0,0,0,1.66.41h.83v.63H207.73v-.63h.88a2.75,2.75,0,0,0,2.23-.84,4.9,4.9,0,0,0,.43-2.62V27.55a7.29,7.29,0,0,0-.24-2.33,1.55,1.55,0,0,0-.74-.71,3.56,3.56,0,0,0-1.68-.41h-.88v-.63h10.53v.63h-.83a3.71,3.71,0,0,0-1.66.39,1.46,1.46,0,0,0-.78.82,7.1,7.1,0,0,0-.22,2.24v7.07c.24-.22,1.07-.94,2.49-2.17a53.21,53.21,0,0,0,6.54-6.17,2.14,2.14,0,0,0,.49-1.19.85.85,0,0,0-.38-.69,2.16,2.16,0,0,0-1.3-.3h-.56v-.63h9.07v.63a5.92,5.92,0,0,0-1.46.2,7.78,7.78,0,0,0-1.59.73,14.7,14.7,0,0,0-2.34,1.72q-.4.34-3.7,3.49Z" transform="translate(-4.2 -4.06)"/><path class="cls-2" d="M242.74,46.55v-.63h.93A2.52,2.52,0,0,0,245.9,45a5.09,5.09,0,0,0,.4-2.52V27.55a4.47,4.47,0,0,0-.51-2.7,2.8,2.8,0,0,0-2.12-.75h-.93v-.63H252.8a23.4,23.4,0,0,1,8.42,1.17,9.81,9.81,0,0,1,4.64,3.92,11.47,11.47,0,0,1,1.76,6.33,11.11,11.11,0,0,1-3.13,8q-3.53,3.6-10.71,3.61Zm7-1.67a19.61,19.61,0,0,0,3.88.47,9.52,9.52,0,0,0,7-2.77,10.14,10.14,0,0,0,2.79-7.52,10.12,10.12,0,0,0-2.79-7.54,9.73,9.73,0,0,0-7.15-2.76,16.57,16.57,0,0,0-3.74.5Z" transform="translate(-4.2 -4.06)"/><path class="cls-2" d="M289.72,38.82h-9.57l-1.68,3.64a5.51,5.51,0,0,0-.61,2,1.17,1.17,0,0,0,.53.93,5.09,5.09,0,0,0,2.33.52v.63h-7.78v-.63a4.36,4.36,0,0,0,2-.67A10.39,10.39,0,0,0,277,41.94l8.69-19h.63l8.6,19.2a8.57,8.57,0,0,0,1.88,3,4.05,4.05,0,0,0,2.37.78v.63h-9.75v-.63a3.88,3.88,0,0,0,2-.46,1.17,1.17,0,0,0,.53-1,6.68,6.68,0,0,0-.74-2.36Zm-.52-1.26L285,28.23l-4.29,9.33Z" transform="translate(-4.2 -4.06)"/><path class="cls-2" d="M326.68,40.16l.6.12-2.11,6.27H306.05v-.63H307a2.55,2.55,0,0,0,2.24-1,5.21,5.21,0,0,0,.38-2.51V27.55a4.47,4.47,0,0,0-.51-2.7A2.77,2.77,0,0,0,307,24.1h-.93v-.63h11.18v.63a7.27,7.27,0,0,0-2.76.34,2.16,2.16,0,0,0-1.08.9A6.86,6.86,0,0,0,313.1,28v14.5a4.39,4.39,0,0,0,.29,1.94,1.28,1.28,0,0,0,.67.52,12.25,12.25,0,0,0,2.84.17h1.8a14,14,0,0,0,4-.39,5.26,5.26,0,0,0,2.1-1.38A11.38,11.38,0,0,0,326.68,40.16Z" transform="translate(-4.2 -4.06)"/><path class="cls-2" d="M342,24.73v9.12h5.44a4.6,4.6,0,0,0,2.81-.6,3.68,3.68,0,0,0,1.06-2.75H352v8h-.68a8.35,8.35,0,0,0-.51-2.16,2.26,2.26,0,0,0-1.07-.94,6,6,0,0,0-2.29-.34H342V42.7a6.81,6.81,0,0,0,.15,1.86,1.09,1.09,0,0,0,.51.53,3.3,3.3,0,0,0,1.39.2h4.19a12.28,12.28,0,0,0,3-.27,4.62,4.62,0,0,0,1.82-1.08,13.08,13.08,0,0,0,2.31-3.18h.73L354,46.55H335v-.63h.88a3.57,3.57,0,0,0,1.66-.4,1.46,1.46,0,0,0,.79-.81,7.6,7.6,0,0,0,.2-2.23v-15a4.75,4.75,0,0,0-.46-2.7,3,3,0,0,0-2.19-.68H335v-.63h19l.28,5.05h-.71a7.55,7.55,0,0,0-.85-2.5,2.89,2.89,0,0,0-1.37-1,8.92,8.92,0,0,0-2.57-.25Z" transform="translate(-4.2 -4.06)"/><path class="cls-3" d="M33.37,11.92a13.91,13.91,0,0,1,1-1.2q-.32-.78-.66-1.47A24.44,24.44,0,0,0,31.4,5.4s-7.19,5.46-8.25,13.25,4.41,15,4.41,15a26,26,0,0,0,6.24-7.37,23.21,23.21,0,0,1-3.53,1S28.79,18.31,33.37,11.92Z" transform="translate(-4.2 -4.06)"/><path class="cls-4" d="M46.85,4.06s-7.77,1.28-12.53,6.66a19,19,0,0,1,1.49,9.65,16.67,16.67,0,0,1-1.51,4.9c-.16.34-.34.66-.5,1A24,24,0,0,0,40.13,23a16.84,16.84,0,0,0,3.62-3.63,19.91,19.91,0,0,0,3.3-10.83A23.67,23.67,0,0,0,46.85,4.06Z" transform="translate(-4.2 -4.06)"/><path class="cls-5" d="M35.81,20.37a19,19,0,0,0-1.49-9.65,13.91,13.91,0,0,0-1,1.2c-4.58,6.39-3.1,15.29-3.1,15.29a23.21,23.21,0,0,0,3.53-1c.16-.32.34-.64.5-1A16.67,16.67,0,0,0,35.81,20.37Z" transform="translate(-4.2 -4.06)"/><path class="cls-4" d="M10.85,40.25A25.7,25.7,0,0,0,8.6,50.32c2.76,1.58,6.7,4.46,8.69,8.85a17.52,17.52,0,0,1,1.46,7.19c.86.53,1.42.8,1.42.8s3.95-8.11,1.37-15.54S10.85,40.25,10.85,40.25Z" transform="translate(-4.2 -4.06)"/><path class="cls-4" d="M48.39,44.78A24.8,24.8,0,0,0,50.64,32.5s-9,.91-14,7-4,15.07-4,15.07a16.68,16.68,0,0,0,1.7-.28,17.56,17.56,0,0,1,4.46-5.69A19.41,19.41,0,0,1,48.39,44.78Z" transform="translate(-4.2 -4.06)"/><path class="cls-3" d="M48.39,44.78a14.72,14.72,0,0,1-1.8,2.79C43,52,37.18,53.72,34.35,54.3a25.9,25.9,0,0,0-2.57,8.24s9,1,15.08-4,7-13.94,7-13.94A25.71,25.71,0,0,0,48.39,44.78Z" transform="translate(-4.2 -4.06)"/><path class="cls-5" d="M46.59,47.57a14.72,14.72,0,0,0,1.8-2.79,19.41,19.41,0,0,0-9.58,3.83,17.56,17.56,0,0,0-4.46,5.69C37.18,53.72,43,52,46.59,47.57Z" transform="translate(-4.2 -4.06)"/><path class="cls-3" d="M9.48,55.79a16.47,16.47,0,0,1-.88-5.47,23.17,23.17,0,0,0-3-1.48s-3.18,8.45.07,15.61,11.7,10.33,11.7,10.33a26.12,26.12,0,0,0,1.39-8.42C16.31,64.87,11.38,61.29,9.48,55.79Z" transform="translate(-4.2 -4.06)"/><path class="cls-5" d="M8.6,50.32a16.47,16.47,0,0,0,.88,5.47c1.9,5.5,6.83,9.08,9.27,10.57a17.52,17.52,0,0,0-1.46-7.19C15.3,54.78,11.36,51.9,8.6,50.32Z" transform="translate(-4.2 -4.06)"/><path class="cls-3" d="M19,82.32c9.84-10.23,7.83-20.12,9.44-32.76,2.17-17.14,13.16-23.32,13-23.21.36-.21.24-.2-.3,0C38.13,27.85,28,33.93,26,51.87c-1.31,11.4,1.27,17.19-7,30.44C19,82.34,19,82.35,19,82.32Z" transform="translate(-4.2 -4.06)"/></svg>